<svg xmlns="http://www.w3.org/2000/svg" width="100" height="49" viewBox="0 0 100 49">
    <g fill="none" fill-rule="evenodd">
        <path fill="#DD4263" d="M26.712 18.593c0 7.095-8.687 14.579-13.467 29.876C8.122 33.175.056 27.386.056 18.593.056 10.82 5.544 4.52 13.384 4.52c7.84 0 13.328 6.301 13.328 14.074"/>
        <path fill="#FFF" d="M20.591 22.66c-1.607 2.373-4.582 3.22-7.284 3.22-4.582 0-8.344-3.323-8.344-8.307s3.762-8.205 8.344-8.205c4.548 0 8.173 3.356 8.173 8.34 0 .408-.034 1.052-.068 1.459H9.716c.24 1.83 2.257 2.645 3.933 2.645 1.3 0 2.702-.475 3.488-1.492l3.454 2.34zm-3.898-6.443c-.24-1.933-2.018-2.713-3.352-2.713-1.333 0-3.146.712-3.556 2.713h6.908z"/>
        <path fill="#DD4263" d="M28.132 9.232h5.19l2.904 4.139 2.83-4.139h5.19l-5.552 7.666 6.642 9.14h-5.154l-3.993-5.614-4.028 5.614h-5.154l6.678-9.14-5.553-7.666"/>
        <path fill="#DD4263" d="M54.083 8.873c2.83 0 5.444 1.187 7.041 3.274l-3.52 2.627c-.8-1.08-2.142-1.655-3.521-1.655-2.468 0-4.755 1.727-4.755 4.462 0 2.735 2.287 4.607 4.755 4.607 1.379 0 2.722-.612 3.52-1.692l3.557 2.591c-1.597 2.088-4.21 3.311-7.077 3.311-4.864 0-9.146-3.527-9.146-8.817s4.282-8.708 9.146-8.708M79.453 19.093H66.532c.29 2.23 2.178 3.599 4.682 3.599 1.706 0 3.448-.72 4.246-2.16 1.053.576 2.287 1.224 3.376 1.8-1.524 2.879-4.791 4.066-7.912 4.066-4.828 0-8.784-3.527-8.784-8.817s3.956-8.708 8.784-8.708c4.827 0 8.601 3.418 8.601 8.708 0 .432-.036 1.116-.072 1.512zm-4.247-2.987c-.326-2.303-2.069-3.563-4.246-3.563-2.323 0-4.138 1.296-4.464 3.563h8.71zM90.305 26.038h-2.36c-4.718 0-6.315-2.915-6.315-7.27V.093h4.464V18.84c-.036 1.44.363 3.167 2.505 3.167h1.706v4.03M99.923 26.038h-2.36c-4.718 0-6.315-2.915-6.315-7.27V.093h4.464V18.84c-.036 1.44.363 3.167 2.505 3.167h1.706v4.03"/>
    </g>
</svg>
